<?xml version="1.0" standalone="no"?>
<!DOCTYPE svg PUBLIC "-//W3C//DTD SVG 20010904//EN"
 "http://www.w3.org/TR/2001/REC-SVG-20010904/DTD/svg10.dtd">
<svg version="1.0" xmlns="http://www.w3.org/2000/svg"
 width="512.000000pt" height="512.000000pt" viewBox="0 0 512.000000 512.000000"
 preserveAspectRatio="xMidYMid meet">

<g transform="translate(0.000000,512.000000) scale(0.100000,-0.100000)"
fill="#000000" stroke="none">
<path d="M444 4948 c-36 -17 -44 -52 -44 -182 l0 -122 -60 -12 c-172 -32 -295
-150 -330 -317 -7 -34 -9 -616 -8 -1785 l3 -1735 23 -58 c44 -108 121 -184
233 -230 l54 -22 1363 -3 1362 -2 0 80 0 80 -200 0 -200 0 0 99 0 100 83 49
c45 27 124 71 175 96 50 25 92 48 92 50 0 15 -62 136 -70 136 -13 0 -182 -84
-232 -116 -20 -13 -40 -24 -43 -24 -3 0 -4 750 -3 1666 l3 1667 100 60 c291
177 676 293 1127 341 175 19 448 36 586 36 l102 0 0 -1280 0 -1280 80 0 80 0
0 1121 0 1121 37 -7 c77 -14 140 -62 179 -135 18 -33 19 -85 22 -1187 l2
-1153 80 0 80 0 0 1138 c0 1224 1 1192 -51 1294 -28 56 -106 131 -166 162 -28
14 -80 31 -117 37 l-66 12 0 123 c0 133 -8 165 -47 183 -29 14 -184 14 -448 1
-692 -34 -1178 -157 -1580 -400 l-85 -51 -85 51 c-402 243 -889 366 -1580 400
-252 12 -424 12 -451 -2z m506 -158 c434 -26 781 -90 1066 -195 118 -44 315
-139 402 -195 l62 -40 0 -1664 0 -1664 -152 77 c-421 211 -854 301 -1575 327
l-193 7 0 1678 0 1679 113 0 c61 0 186 -5 277 -10z m-550 -1885 l0 -1576 25
-24 c22 -23 32 -25 120 -25 l95 0 0 -215 c0 -216 0 -216 25 -240 l24 -25 896
0 895 0 0 -80 0 -80 -1056 0 c-800 0 -1067 3 -1098 12 -55 16 -138 99 -154
154 -17 60 -17 3448 0 3508 23 77 128 161 206 165 l22 1 0 -1575z m723 -1650
c447 -39 829 -132 1084 -264 l58 -30 -732 -1 -733 0 0 155 0 155 78 0 c42 0
152 -7 245 -15z"/>
<path d="M880 4081 l0 -78 103 -7 c435 -29 754 -85 1011 -178 61 -21 117 -40
124 -41 11 -2 78 131 70 138 -2 2 -53 21 -114 43 -276 101 -592 160 -1029 192
-77 5 -146 10 -152 10 -9 0 -13 -22 -13 -79z"/>
<path d="M880 3681 l0 -78 103 -7 c435 -29 754 -85 1011 -178 61 -21 117 -40
124 -41 7 -1 26 27 42 65 34 80 43 70 -106 124 -261 94 -583 153 -1009 184
-77 5 -146 10 -152 10 -9 0 -13 -22 -13 -79z"/>
<path d="M880 3281 l0 -78 103 -7 c435 -29 754 -85 1011 -178 61 -21 117 -40
124 -41 7 -1 26 27 42 65 34 80 43 70 -106 124 -261 94 -583 153 -1009 184
-77 5 -146 10 -152 10 -9 0 -13 -22 -13 -79z"/>
<path d="M880 2881 l0 -78 103 -7 c435 -29 754 -85 1011 -178 61 -21 117 -40
124 -41 7 -1 26 27 42 65 34 80 43 70 -106 124 -261 94 -583 153 -1009 184
-77 5 -146 10 -152 10 -9 0 -13 -22 -13 -79z"/>
<path d="M880 2481 l0 -78 103 -7 c435 -29 754 -85 1011 -178 61 -21 117 -40
124 -41 7 -1 26 27 42 65 34 80 43 70 -106 124 -261 94 -583 153 -1009 184
-77 5 -146 10 -152 10 -9 0 -13 -22 -13 -79z"/>
<path d="M880 2081 l0 -78 103 -7 c435 -29 754 -85 1011 -178 61 -21 117 -40
124 -41 7 -1 26 27 42 65 34 80 43 70 -106 124 -261 94 -583 153 -1009 184
-77 5 -146 10 -152 10 -9 0 -13 -22 -13 -79z"/>
<path d="M4045 4149 c-387 -27 -748 -96 -1011 -194 -54 -21 -100 -38 -102 -40
-3 -3 49 -127 58 -138 4 -4 42 6 84 23 98 39 290 92 426 119 193 37 325 53
653 77 l87 6 0 79 0 79 -37 -1 c-21 -1 -92 -6 -158 -10z"/>
<path d="M4045 3749 c-387 -27 -748 -96 -1011 -194 -54 -21 -100 -38 -102 -40
-3 -3 49 -127 58 -138 4 -4 42 6 84 23 98 39 290 92 426 119 193 37 325 53
653 77 l87 6 0 79 0 79 -37 -1 c-21 -1 -92 -6 -158 -10z"/>
<path d="M4045 3349 c-387 -27 -748 -96 -1011 -194 -54 -21 -100 -38 -102 -40
-3 -3 49 -127 58 -138 4 -4 42 6 84 23 98 39 290 92 426 119 193 37 325 53
653 77 l87 6 0 79 0 79 -37 -1 c-21 -1 -92 -6 -158 -10z"/>
<path d="M4045 2949 c-387 -27 -748 -96 -1011 -194 -54 -21 -100 -38 -102 -40
-3 -3 49 -127 58 -138 4 -4 42 6 84 23 98 39 290 92 426 119 193 37 325 53
653 77 l87 6 0 79 0 79 -37 -1 c-21 -1 -92 -6 -158 -10z"/>
<path d="M4045 2549 c-387 -27 -748 -96 -1011 -194 -54 -21 -100 -38 -102 -40
-3 -3 49 -127 58 -138 4 -4 42 6 84 23 98 39 290 92 426 119 193 37 325 53
653 77 l87 6 0 79 0 79 -37 -1 c-21 -1 -92 -6 -158 -10z"/>
<path d="M3865 2216 c-24 -24 -25 -31 -25 -139 l0 -114 -67 -26 -67 -27 -82
80 c-116 114 -112 115 -280 -54 -169 -168 -168 -164 -54 -280 l80 -82 -27 -67
-26 -67 -114 0 c-108 0 -115 -1 -138 -25 -25 -24 -25 -26 -25 -215 0 -189 0
-191 25 -215 23 -24 31 -25 137 -25 l113 0 26 -63 25 -62 -78 -82 c-65 -69
-78 -88 -78 -115 0 -18 4 -38 8 -43 4 -6 66 -68 138 -138 103 -99 138 -127
159 -127 21 0 48 20 111 81 l83 82 66 -29 65 -28 0 -103 c0 -112 10 -145 47
-162 32 -15 354 -15 386 0 37 17 47 50 47 163 l0 102 66 28 67 27 82 -81 c64
-62 89 -80 111 -80 23 0 54 26 166 138 173 172 172 167 60 285 l-78 82 25 62
26 63 102 0 c112 0 145 10 162 47 7 14 11 90 11 193 0 103 -4 179 -11 193 -17
37 -50 47 -162 47 l-102 0 -26 63 -25 62 78 82 c69 73 78 87 78 120 0 34 -10
47 -133 170 -168 168 -164 167 -281 53 l-82 -80 -66 26 -66 27 -4 118 c-2 97
-6 122 -21 136 -15 16 -41 18 -212 21 l-195 3 -25 -25z m295 -238 c1 -71 5
-109 14 -121 8 -10 51 -31 95 -47 45 -16 102 -40 126 -54 69 -41 87 -36 174
49 l77 74 57 -56 56 -57 -74 -77 c-85 -87 -90 -105 -49 -174 14 -24 38 -81 54
-126 16 -45 30 -83 32 -84 22 -18 63 -25 142 -25 l96 0 0 -80 0 -80 -103 0
c-124 0 -135 -7 -167 -107 -12 -37 -35 -92 -51 -120 -44 -79 -40 -94 46 -182
l74 -77 -56 -57 -57 -56 -77 74 c-87 85 -105 90 -174 49 -24 -14 -81 -38 -126
-54 -44 -16 -87 -37 -95 -47 -9 -12 -13 -50 -14 -120 l0 -103 -80 0 -80 0 0
103 c0 124 -7 135 -107 167 -37 12 -92 35 -120 51 -79 44 -94 40 -182 -46
l-77 -74 -57 56 -56 57 74 77 c86 88 90 103 46 182 -16 28 -39 83 -51 120 -32
100 -43 107 -167 107 l-103 0 0 80 0 80 103 0 c124 0 135 7 167 107 12 37 35
92 51 120 44 79 40 94 -46 182 l-74 77 56 57 57 56 77 -74 c88 -86 103 -90
182 -46 28 16 83 39 120 51 100 32 107 43 107 167 l0 103 80 0 80 0 0 -102z"/>
<path d="M3961 1664 c-253 -68 -410 -331 -346 -579 67 -256 329 -415 580 -350
237 62 393 291 358 529 -40 283 -322 473 -592 400z m215 -159 c78 -24 143 -80
184 -159 31 -61 35 -78 35 -145 0 -131 -66 -235 -184 -290 -79 -37 -183 -37
-262 0 -179 84 -241 300 -133 466 76 117 222 170 360 128z"/>
</g>
</svg>
